<?xml version="1.0" encoding="UTF-8"?>
<svg version="1.1" xmlns="http://www.w3.org/2000/svg" width="512" height="512">
<path d="M0 0 C1.63343089 1.44638632 3.25825595 2.90178884 4.88037109 4.36083984 C5.60740234 5.00279297 6.33443359 5.64474609 7.08349609 6.30615234 C43.51574132 40.44224766 58.94004729 94.95565139 61.00531006 143.28451538 C61.20410484 150.16384577 61.21804587 157.04165949 61.19287109 163.92333984 C61.19013687 165.48699783 61.19013687 165.48699783 61.18734741 167.08224487 C61.03008285 220.73507271 49.80810657 273.76030403 13.88037109 315.36083984 C13.20103516 316.16263672 12.52169922 316.96443359 11.82177734 317.79052734 C7.51327868 322.77931527 2.99602978 327.20761864 -2.11962891 331.36083984 C-3.53888672 332.5190625 -3.53888672 332.5190625 -4.98681641 333.70068359 C-43.08727118 364.20363779 -90.53563094 373.18920859 -138.37353516 368.89990234 C-143.34936277 368.32120043 -148.23050155 367.44513004 -153.11962891 366.36083984 C-154.43495605 366.07080078 -154.43495605 366.07080078 -155.77685547 365.77490234 C-197.54554231 356.18719102 -234.28238891 331.87804679 -257.3515625 295.41357422 C-260.14654561 290.83389831 -262.67128937 286.13306442 -265.11962891 281.36083984 C-265.49716309 280.63558105 -265.87469727 279.91032227 -266.26367188 279.16308594 C-278.50603774 255.41238286 -285.56727978 228.93856229 -288.11962891 202.36083984 C-288.2050293 201.5380957 -288.29042969 200.71535156 -288.37841797 199.86767578 C-289.41702411 188.55468632 -289.36330846 177.21258447 -289.36962891 165.86083984 C-289.37030365 164.7722467 -289.37097839 163.68365356 -289.37167358 162.56207275 C-289.33189432 122.09503833 -284.25138468 81.23871965 -264.11962891 45.36083984 C-263.46472146 44.14407013 -262.81108228 42.92661696 -262.15869141 41.70849609 C-256.11971889 30.60713577 -248.75233968 20.86162685 -240.16259766 11.61474609 C-238.74410281 10.04979097 -237.38364855 8.43103259 -236.07275391 6.77490234 C-233.13606838 3.14515904 -229.7110648 0.32667077 -226.11962891 -2.63916016 C-225.23791016 -3.38166016 -224.35619141 -4.12416016 -223.44775391 -4.88916016 C-203.00690225 -21.41129932 -178.75026812 -32.21000998 -153.11962891 -37.63916016 C-152.36294922 -37.80287109 -151.60626953 -37.96658203 -150.82666016 -38.13525391 C-98.02576585 -48.98229671 -40.66239281 -35.47659183 0 0 Z M-166.36962891 57.92333984 C-188.17188994 87.49898086 -190.49862046 125.40785683 -190.43530273 160.84936523 C-190.43214806 164.52601979 -190.4556827 168.20186233 -190.48095703 171.87841797 C-190.58024514 208.79568202 -186.19579867 248.16172125 -160.17041016 276.48193359 C-146.85201617 289.49590715 -129.26698597 293.87716807 -111.18896484 293.70849609 C-95.03835573 293.28914307 -79.09984725 287.44978811 -67.41650391 275.94287109 C-44.08730341 249.71735829 -38.04742202 213.6832799 -37.91650391 179.59912109 C-37.91080383 178.41021774 -37.90510376 177.22131439 -37.89923096 175.99638367 C-37.88984046 173.48954134 -37.88327086 170.982687 -37.87939453 168.47583008 C-37.86977001 164.72828271 -37.83872144 160.98130403 -37.80712891 157.23388672 C-37.64676257 120.85698111 -41.53512508 79.93761131 -68.11962891 52.36083984 C-83.48017677 38.84944138 -100.80784846 34.14537308 -120.96826172 35.19238281 C-138.814546 36.58978819 -154.70268778 44.35820591 -166.36962891 57.92333984 Z " fill="#2096F3" transform="translate(370.11962890625,91.63916015625)"/>
</svg>
